<svg xmlns="http://www.w3.org/2000/svg" viewBox="0 0 113.2 113.98"><path fill="#e3c195" d="M56.606 2.003C26.45 2.003 2.005 26.62 2.005 56.991c0 30.375 24.445 54.992 54.601 54.992 30.16 0 54.602-24.617 54.602-54.992 0-30.371-24.441-54.988-54.602-54.988M82.403 63.19h-5.176v11.176c0 4.61-1.238 8.187-3.675 10.625-2.442 2.437-5.98 3.672-10.535 3.672H50.32c-4.613 0-8.176-1.23-10.586-3.653-2.402-2.418-3.625-6.007-3.625-10.652V38.28c0-4.645 1.22-8.227 3.625-10.652 2.41-2.422 5.973-3.653 10.586-3.653h12.692c4.547 0 8.093 1.243 10.535 3.676 2.441 2.438 3.68 6.012 3.68 10.629v7.102H63.746v-4.41c0-2.368-1.094-3.473-3.45-3.473h-6.882c-2.355 0-3.45 1.105-3.45 3.472v30.704c0 2.37 1.095 3.468 3.45 3.468h6.883c2.355 0 3.449-1.105 3.449-3.468v-8.489H58.57c-1.535 0-2.77-.875-2.77-2.484 0-1.004.505-1.8 1.583-2.52l10.039-6.683c.957-.637 1.691-1.254 3.062-1.254 1.367 0 2.102.613 3.063 1.254l10.035 6.683c1.078.72 1.59 1.516 1.59 2.52 0 1.61-1.23 2.484-2.77 2.484h-.004z"/></svg>